<?xml version="1.0" encoding="iso-8859-1"?>
<!-- Uploaded to: SVG Repo, www.svgrepo.com, Generator: SVG Repo Mixer Tools -->
<svg fill="#000000" height="800px" width="800px" version="1.1" id="Layer_1" xmlns="http://www.w3.org/2000/svg" xmlns:xlink="http://www.w3.org/1999/xlink" 
	 viewBox="0 0 512 512" xml:space="preserve">
<g>
	<g>
		<g>
			<path d="M448,0H64C52.218,0,42.667,9.551,42.667,21.333V448v42.667C42.667,502.449,52.218,512,64,512
				c11.782,0,21.333-9.551,21.333-21.333v-21.333h149.333v21.333c0,11.782,9.551,21.333,21.333,21.333
				c11.782,0,21.333-9.551,21.333-21.333v-21.333h149.333v21.333c0,11.782,9.551,21.333,21.333,21.333s21.333-9.551,21.333-21.333
				V448V21.333C469.333,9.551,459.782,0,448,0z M426.667,426.667H277.333v-384h149.333V426.667z M85.333,42.667h149.333v384H85.333
				V42.667z"/>
			<path d="M149.333,128h21.333c11.782,0,21.333-9.551,21.333-21.333c0-11.782-9.551-21.333-21.333-21.333h-21.333
				c-11.782,0-21.333,9.551-21.333,21.333C128,118.449,137.551,128,149.333,128z"/>
			<path d="M170.667,149.333h-21.333c-11.782,0-21.333,9.551-21.333,21.333c0,11.782,9.551,21.333,21.333,21.333h21.333
				c11.782,0,21.333-9.551,21.333-21.333C192,158.885,182.449,149.333,170.667,149.333z"/>
			<path d="M341.333,128h21.333c11.782,0,21.333-9.551,21.333-21.333c0-11.782-9.551-21.333-21.333-21.333h-21.333
				c-11.782,0-21.333,9.551-21.333,21.333C320,118.449,329.551,128,341.333,128z"/>
			<path d="M362.667,149.333h-21.333c-11.782,0-21.333,9.551-21.333,21.333c0,11.782,9.551,21.333,21.333,21.333h21.333
				c11.782,0,21.333-9.551,21.333-21.333C384,158.885,374.449,149.333,362.667,149.333z"/>
		</g>
	</g>
</g>
</svg>